<svg width="36" height="37" viewBox="0 0 36 37" fill="none" xmlns="http://www.w3.org/2000/svg">
<g clip-path="url(#clip0_158_334)">
<path d="M34.128 10.1705C33.124 9.66851 31.9403 9.77396 31.0432 10.4497C30.9853 10.4928 30.9303 10.5418 30.8798 10.5923L28.2703 13.2255C27.9569 9.41603 24.7935 6.40259 20.9052 6.40259H7.53833C3.44362 6.4011 0.112305 9.73238 0.112305 13.827V22.7382C0.112305 26.8328 3.44362 30.1641 7.53833 30.1641H20.9052C24.8098 30.1641 27.9866 27.1239 28.2748 23.2921L30.8828 25.8971C30.9333 25.9462 30.9853 25.9907 31.0417 26.0338C31.5645 26.4259 32.1824 26.6249 32.8061 26.6249C33.2562 26.6249 33.7062 26.5224 34.128 26.3115C35.1335 25.8095 35.7572 24.7981 35.7572 23.6768V12.8082C35.7572 11.6839 35.1335 10.674 34.128 10.172V10.1705ZM20.9052 27.1937H7.53833C5.0818 27.1937 3.08272 25.1946 3.08272 22.7382V13.827C3.08272 11.3705 5.0818 9.37148 7.53833 9.37148H20.9052C23.3617 9.37148 25.3608 11.3705 25.3608 13.827V22.7382C25.3608 25.1946 23.3617 27.1937 20.9052 27.1937ZM28.3312 19.1485V17.3826L32.7868 12.8854L32.824 23.6352L28.3312 19.147V19.1485Z" fill="#1E1E1E"/>
</g>
<defs>
<clipPath id="clip0_158_334">
<rect width="35.6449" height="35.6445" fill="white" transform="translate(0.112305 0.460358)"/>
</clipPath>
</defs>
</svg>
