<svg width="37" height="37" viewBox="0 0 37 37" fill="none" xmlns="http://www.w3.org/2000/svg">
<g clip-path="url(#clip0_158_342)">
<path d="M3.86543 21.253C5.50594 21.253 6.83584 19.9231 6.83584 18.2826C6.83584 16.6421 5.50594 15.3122 3.86543 15.3122C2.22492 15.3122 0.89502 16.6421 0.89502 18.2826C0.89502 19.9231 2.22492 21.253 3.86543 21.253Z" fill="#1E1E1E"/>
<path d="M18.7175 21.253C20.358 21.253 21.6879 19.9231 21.6879 18.2826C21.6879 16.6421 20.358 15.3122 18.7175 15.3122C17.077 15.3122 15.7471 16.6421 15.7471 18.2826C15.7471 19.9231 17.077 21.253 18.7175 21.253Z" fill="#1E1E1E"/>
<path d="M33.5695 21.253C35.21 21.253 36.5399 19.9231 36.5399 18.2826C36.5399 16.6421 35.21 15.3122 33.5695 15.3122C31.929 15.3122 30.5991 16.6421 30.5991 18.2826C30.5991 19.9231 31.929 21.253 33.5695 21.253Z" fill="#1E1E1E"/>
</g>
<defs>
<clipPath id="clip0_158_342">
<rect width="35.6449" height="35.6445" fill="white" transform="translate(0.89502 0.460358)"/>
</clipPath>
</defs>
</svg>
