<svg width="30" height="31" viewBox="0 0 30 31" fill="none" xmlns="http://www.w3.org/2000/svg">
<path d="M17.7814 27.6707L15.9746 27.6707V25.7201C16.9266 25.5569 17.8221 25.177 18.6405 24.6387L16.6414 22.68C15.964 22.9486 15.2422 23.0947 14.4843 23.0349C11.4322 22.7955 8.90908 19.1854 8.90908 15.3615V15.1478L6.69099 12.9701L6.691 15.2003C6.691 20.3787 9.64706 24.9969 13.6734 25.6958V27.6684L11.825 27.6684C11.0084 27.6684 10.3878 28.4962 10.3878 29.4648C10.3878 30.0274 10.7621 30.4433 11.1272 30.4433H18.4792C18.8876 30.4433 19.177 30.0295 19.177 29.5711C19.2602 28.4967 18.641 27.6707 17.7814 27.6707ZM29.2277 27.9653L21.8664 20.7507C22.5767 19.2524 23 17.5212 23 15.6555V13.3456C23 12.5802 22.5032 11.9592 21.9325 11.9592C21.3202 11.9592 20.8235 12.5802 20.8235 13.3456L20.8235 15.6041C20.8235 16.824 20.5666 17.9591 20.1409 18.9682L18.9524 17.8037C19.1943 17.129 19.3449 16.3931 19.3449 15.6041L19.3448 6.64507C19.3448 3.60848 17.4724 0.96064 15.044 0.87053C12.5316 0.777128 10.4725 3.29368 10.4725 6.41287V9.5465L1.87173 1.16402C1.6684 0.965434 1.42719 0.868797 1.18874 0.868797C0.859726 0.868797 0.532973 1.05121 0.314907 1.39958C-0.0634156 2.00262 0.0205483 2.87426 0.50289 3.34618L27.8177 30.0961C28.303 30.5699 28.9993 30.4616 29.3746 29.8606C29.7961 29.3112 29.7083 28.439 29.2277 27.9653Z" fill="white"/>
</svg>
