<svg width="36" height="37" viewBox="0 0 36 37" fill="none" xmlns="http://www.w3.org/2000/svg">
<g clip-path="url(#clip0_158_329)">
<path d="M21.5827 32.7638L19.405 32.7638V30.4127C20.5523 30.2161 21.6317 29.7582 22.618 29.1095L20.2087 26.7487C19.3922 27.0724 18.5222 27.2485 17.6088 27.1764C13.9301 26.8879 10.8892 22.5367 10.8892 17.928V17.6704L8.21582 15.0457L8.21582 17.7337C8.21582 23.9751 11.7786 29.5411 16.6314 30.3835V32.761L14.4036 32.761C13.4194 32.761 12.6714 33.7586 12.6714 34.9261C12.6714 35.6042 13.1226 36.1055 13.5626 36.1055H22.4237C22.9159 36.1055 23.2647 35.6067 23.2647 35.0542C23.3649 33.7593 22.6186 32.7638 21.5827 32.7638ZM35.3784 33.1188L26.5061 24.4234C27.3622 22.6175 27.8723 20.531 27.8723 18.2823V15.4983C27.8723 14.5758 27.2736 13.8274 26.5858 13.8274C25.8478 13.8274 25.2491 14.5758 25.2491 15.4983L25.2491 18.2204C25.2491 19.6907 24.9395 21.0587 24.4265 22.275L22.994 20.8714C23.2855 20.0583 23.467 19.1714 23.467 18.2204L23.4669 7.42244C23.4669 3.76257 21.2102 0.571236 18.2834 0.46263C15.2552 0.350056 12.7735 3.38315 12.7735 7.14258V10.9194L2.40736 0.816364C2.1623 0.577014 1.87157 0.460542 1.58419 0.460542C1.18764 0.460542 0.793815 0.680399 0.530989 1.10027C0.0750125 1.82709 0.176211 2.87764 0.757557 3.44643L33.679 35.687C34.2638 36.2581 35.1031 36.1276 35.5554 35.4031C36.0634 34.741 35.9576 33.6897 35.3784 33.1188Z" fill="white"/>
</g>
<defs>
<clipPath id="clip0_158_329">
<rect width="35.6449" height="35.6449" fill="white" transform="translate(0.245605 0.460663)"/>
</clipPath>
</defs>
</svg>
