<svg width="37" height="37" viewBox="0 0 37 37" fill="none" xmlns="http://www.w3.org/2000/svg">
<g clip-path="url(#clip0_158_350)">
<path d="M11.627 19.724C10.268 19.724 8.93949 19.3237 7.80951 18.5736C6.67952 17.8235 5.79881 16.7575 5.27874 15.5102C4.75866 14.2629 4.62259 12.8904 4.88772 11.5662C5.15285 10.2421 5.80728 9.0258 6.76825 8.07116C7.72922 7.11651 8.95358 6.46639 10.2865 6.203C11.6194 5.93962 13.001 6.0748 14.2566 6.59145C15.5121 7.1081 16.5853 7.98301 17.3403 9.10556C18.0953 10.2281 18.4983 11.5479 18.4983 12.8979C18.4963 14.7077 17.7717 16.4428 16.4835 17.7225C15.1954 19.0022 13.4488 19.722 11.627 19.724ZM21.5523 36.41H1.70177C1.29679 36.41 0.908402 36.2502 0.622041 35.9657C0.33568 35.6812 0.174805 35.2954 0.174805 34.8931V34.1346C0.174805 31.1173 1.38137 28.2236 3.52908 26.09C5.67678 23.9564 8.5897 22.7578 11.627 22.7578C14.6643 22.7578 17.5772 23.9564 19.7249 26.09C21.8727 28.2236 23.0792 31.1173 23.0792 34.1346V34.8931C23.0792 35.2954 22.9183 35.6812 22.632 35.9657C22.3456 36.2502 21.9572 36.41 21.5523 36.41ZM26.8966 13.6564C25.5376 13.6564 24.2091 13.256 23.0791 12.506C21.9491 11.7559 21.0684 10.6898 20.5483 9.44253C20.0283 8.19522 19.8922 6.82272 20.1573 5.49859C20.4225 4.17446 21.0769 2.95817 22.0379 2.00353C22.9988 1.04888 24.2232 0.398762 25.5561 0.135376C26.889 -0.12801 28.2706 0.00716907 29.5262 0.523819C30.7817 1.04047 31.8549 1.91539 32.6099 3.03793C33.3649 4.16047 33.7679 5.48023 33.7679 6.8303C33.7659 8.64007 33.0413 10.3751 31.7531 11.6548C30.465 12.9346 28.7184 13.6544 26.8966 13.6564ZM24.7268 16.722C23.3046 16.9116 21.9372 17.3909 20.7101 18.1298C19.4831 18.8688 18.4229 19.8515 17.5959 21.0164C21.0177 22.5601 23.7062 25.3581 25.0994 28.8255H35.2949C35.6999 28.8255 36.0883 28.6656 36.3746 28.3812C36.661 28.0967 36.8219 27.7109 36.8219 27.3085V27.2509C36.8203 25.7389 36.494 24.2445 35.8649 22.8677C35.2357 21.4909 34.3181 20.2633 33.1734 19.2667C32.0286 18.2702 30.6831 17.5278 29.2265 17.089C27.7699 16.6501 26.2359 16.5251 24.7268 16.722Z" fill="#1E1E1E"/>
</g>
<defs>
<clipPath id="clip0_158_350">
<rect width="36.6471" height="36.4058" fill="white" transform="translate(0.174805 0.00421143)"/>
</clipPath>
</defs>
</svg>
