<svg width="37" height="37" viewBox="0 0 37 37" fill="none" xmlns="http://www.w3.org/2000/svg">
<g clip-path="url(#clip0_158_323)">
<path d="M31.7561 6.83219C31.6181 6.6942 31.4542 6.58474 31.274 6.51006C31.0937 6.43538 30.9004 6.39694 30.7053 6.39694C30.5101 6.39694 30.3169 6.43538 30.1366 6.51006C29.9563 6.58474 29.7925 6.6942 29.6545 6.83219C29.5165 6.97018 29.407 7.134 29.3324 7.31429C29.2577 7.49459 29.2192 7.68783 29.2192 7.88297C29.2192 8.07812 29.2577 8.27136 29.3324 8.45165C29.407 8.63195 29.5165 8.79577 29.6545 8.93376C32.1303 11.4154 33.5207 14.7777 33.5207 18.2831C33.5207 21.7886 32.1303 25.1509 29.6545 27.6325C29.3758 27.9112 29.2192 28.2892 29.2192 28.6833C29.2192 29.0774 29.3758 29.4554 29.6545 29.7341C29.9332 30.0127 30.3112 30.1693 30.7053 30.1693C31.0994 30.1693 31.4774 30.0127 31.7561 29.7341C34.7885 26.6947 36.4916 22.5766 36.4916 18.2831C36.4916 13.9897 34.7885 9.87156 31.7561 6.83219Z" fill="#1E1E1E"/>
<path d="M27.7355 11.2893C27.5975 11.1508 27.4336 11.0409 27.2532 10.9657C27.0727 10.8906 26.8792 10.8518 26.6837 10.8514C26.4882 10.8511 26.2945 10.8892 26.1138 10.9637C25.933 11.0382 25.7687 11.1476 25.6303 11.2856C25.4918 11.4236 25.3818 11.5875 25.3067 11.768C25.2316 11.9484 25.1927 12.142 25.1924 12.3374C25.192 12.5329 25.2302 12.7266 25.3047 12.9073C25.3792 13.0881 25.4886 13.2524 25.6265 13.3909C26.9228 14.6891 27.6508 16.4486 27.6508 18.2831C27.6508 20.1176 26.9228 21.8772 25.6265 23.1754C25.4886 23.3139 25.3792 23.4782 25.3047 23.6589C25.2302 23.8397 25.192 24.0333 25.1924 24.2288C25.1927 24.4243 25.2316 24.6178 25.3067 24.7983C25.3818 24.9788 25.4918 25.1427 25.6303 25.2807C25.9099 25.5594 26.2889 25.7155 26.6837 25.7148C26.8792 25.7145 27.0727 25.6756 27.2532 25.6005C27.4336 25.5254 27.5975 25.4154 27.7355 25.277C29.5881 23.4208 30.6285 20.9055 30.6285 18.2831C30.6285 15.6607 29.5881 13.1454 27.7355 11.2893Z" fill="#1E1E1E"/>
<path d="M21.3791 0.757717C16.863 1.60617 12.8461 4.15862 10.1598 7.8867H8.27954C6.311 7.88985 4.42399 8.67324 3.03202 10.0652C1.64005 11.4572 0.856658 13.3442 0.853516 15.3127L0.853516 21.2536C0.856658 23.2221 1.64005 25.1091 3.03202 26.5011C4.42399 27.8931 6.311 28.6764 8.27954 28.6796H10.1598C12.8466 32.4071 16.8633 34.9594 21.3791 35.8086C21.4676 35.8259 21.5577 35.8343 21.6479 35.8338C22.0418 35.8338 22.4195 35.6773 22.6981 35.3988C22.9766 35.1203 23.1331 34.7425 23.1331 34.3486V2.22213C23.1336 2.004 23.0861 1.78843 22.994 1.59074C22.9018 1.39305 22.7672 1.21809 22.5997 1.07829C22.4323 0.9385 22.2361 0.837303 22.0251 0.781897C21.8142 0.726491 21.5936 0.718235 21.3791 0.757717ZM20.1612 32.4446C16.8854 31.4003 14.0687 29.2607 12.1842 26.3849C12.0495 26.1778 11.8653 26.0075 11.6482 25.8895C11.4312 25.7715 11.1881 25.7095 10.941 25.7092H8.27954C7.09784 25.7092 5.96454 25.2397 5.12895 24.4042C4.29336 23.5686 3.82393 22.4353 3.82393 21.2536V15.3127C3.82393 14.131 4.29336 12.9977 5.12895 12.1621C5.96454 11.3265 7.09784 10.8571 8.27954 10.8571H10.9529C11.1997 10.8571 11.4426 10.7956 11.6596 10.6781C11.8767 10.5606 12.061 10.3909 12.196 10.1843C14.0767 7.30931 16.8891 5.16869 20.1612 4.12171V32.4446Z" fill="#1E1E1E"/>
</g>
<defs>
<clipPath id="clip0_158_323">
<rect width="35.6449" height="35.6449" fill="white" transform="translate(0.853516 0.460663)"/>
</clipPath>
</defs>
</svg>
