<svg width="19" height="19" viewBox="0 0 19 19" fill="none" xmlns="http://www.w3.org/2000/svg">
<path d="M1.79167 7.95833H7.95833V1.79167C7.95833 1.38279 8.12076 0.990663 8.40988 0.701544C8.699 0.412425 9.09112 0.25 9.5 0.25C9.90888 0.25 10.301 0.412425 10.5901 0.701544C10.8792 0.990663 11.0417 1.38279 11.0417 1.79167V7.95833H17.2083C17.6172 7.95833 18.0093 8.12076 18.2985 8.40988C18.5876 8.699 18.75 9.09112 18.75 9.5C18.75 9.90888 18.5876 10.301 18.2985 10.5901C18.0093 10.8792 17.6172 11.0417 17.2083 11.0417H11.0417V17.2083C11.0417 17.6172 10.8792 18.0093 10.5901 18.2985C10.301 18.5876 9.90888 18.75 9.5 18.75C9.09112 18.75 8.699 18.5876 8.40988 18.2985C8.12076 18.0093 7.95833 17.6172 7.95833 17.2083V11.0417H1.79167C1.38279 11.0417 0.990662 10.8792 0.701544 10.5901C0.412424 10.301 0.25 9.90888 0.25 9.5C0.25 9.09112 0.412424 8.699 0.701544 8.40988C0.990662 8.12076 1.38279 7.95833 1.79167 7.95833Z" fill="white"/>
</svg>
