<svg width="35" height="39" viewBox="0 0 35 39" fill="none" xmlns="http://www.w3.org/2000/svg">
<g clip-path="url(#clip0_110_1602)">
<path d="M32.8927 23.9237L30.1218 13.9546C29.3097 11.034 27.5446 8.46875 25.1071 6.66651C22.6697 4.86428 19.6997 3.92852 16.6694 4.00797C13.6391 4.08742 10.7222 5.17752 8.38257 7.105C6.0429 9.03249 4.41465 11.6867 3.75664 14.6458L1.61143 24.2927C1.37448 25.3587 1.37995 26.4642 1.62746 27.5278C1.87497 28.5913 2.35819 29.5857 3.04145 30.4375C3.7247 31.2893 4.59054 31.9767 5.57505 32.4491C6.55956 32.9215 7.63759 33.1667 8.72956 33.1667H10.3541C10.6888 34.815 11.5831 36.2969 12.8854 37.3614C14.1877 38.4258 15.818 39.0073 17.5 39.0073C19.182 39.0073 20.8122 38.4258 22.1145 37.3614C23.4168 36.2969 24.3111 34.815 24.6458 33.1667H25.8679C26.992 33.1667 28.1009 32.9069 29.108 32.4075C30.115 31.9081 30.993 31.1826 31.6733 30.2877C32.3535 29.3928 32.8177 28.3528 33.0295 27.2488C33.2413 26.1448 33.1949 25.0068 32.8941 23.9237H32.8927ZM17.5 36.0833C16.5983 36.0796 15.7199 35.7974 14.9848 35.2753C14.2497 34.7532 13.6938 34.0167 13.3933 33.1667H21.6066C21.3061 34.0167 20.7503 34.7532 20.0152 35.2753C19.2801 35.7974 18.4016 36.0796 17.5 36.0833ZM29.3504 28.5219C28.944 29.061 28.4175 29.4979 27.8127 29.7979C27.2079 30.0978 26.5415 30.2527 25.8664 30.25H8.72956C8.07445 30.2499 7.42773 30.1027 6.83714 29.8192C6.24654 29.5357 5.72715 29.1232 5.31729 28.6121C4.90744 28.1011 4.61758 27.5045 4.46913 26.8664C4.32067 26.2284 4.3174 25.5651 4.45956 24.9256L6.60331 15.2773C7.12007 12.953 8.39896 10.8682 10.2367 9.35419C12.0744 7.84022 14.3655 6.984 16.7457 6.92164C19.1259 6.85929 21.4587 7.59438 23.3731 9.01005C25.2876 10.4257 26.6739 12.4408 27.3116 14.7348L30.0825 24.704C30.2656 25.3535 30.2947 26.0367 30.1676 26.6994C30.0406 27.3622 29.7607 27.9862 29.3504 28.5219Z" fill="white"/>
</g>
<circle cx="26" cy="7" r="7" fill="#FF5C5C"/>
<defs>
<clipPath id="clip0_110_1602">
<rect width="35" height="35" fill="white" transform="translate(0 4)"/>
</clipPath>
</defs>
</svg>
