<svg width="35" height="35" viewBox="0 0 35 35" fill="none" xmlns="http://www.w3.org/2000/svg">
<g clip-path="url(#clip0_110_1606)">
<path d="M27.7083 2.91667H26.25V1.45833C26.25 1.07156 26.0964 0.700627 25.8229 0.427136C25.5494 0.153645 25.1784 0 24.7917 0C24.4049 0 24.034 0.153645 23.7605 0.427136C23.487 0.700627 23.3333 1.07156 23.3333 1.45833V2.91667H11.6667V1.45833C11.6667 1.07156 11.513 0.700627 11.2395 0.427136C10.966 0.153645 10.5951 0 10.2083 0C9.82156 0 9.45063 0.153645 9.17714 0.427136C8.90365 0.700627 8.75 1.07156 8.75 1.45833V2.91667H7.29167C5.35851 2.91898 3.50519 3.68795 2.13824 5.0549C0.771286 6.42186 0.00231563 8.27517 0 10.2083L0 27.7083C0.00231563 29.6415 0.771286 31.4948 2.13824 32.8618C3.50519 34.2287 5.35851 34.9977 7.29167 35H27.7083C29.6415 34.9977 31.4948 34.2287 32.8618 32.8618C34.2287 31.4948 34.9977 29.6415 35 27.7083V10.2083C34.9977 8.27517 34.2287 6.42186 32.8618 5.0549C31.4948 3.68795 29.6415 2.91898 27.7083 2.91667ZM2.91667 10.2083C2.91667 9.04801 3.3776 7.93521 4.19807 7.11474C5.01855 6.29427 6.13134 5.83333 7.29167 5.83333H27.7083C28.8687 5.83333 29.9815 6.29427 30.8019 7.11474C31.6224 7.93521 32.0833 9.04801 32.0833 10.2083V11.6667H2.91667V10.2083ZM27.7083 32.0833H7.29167C6.13134 32.0833 5.01855 31.6224 4.19807 30.8019C3.3776 29.9815 2.91667 28.8687 2.91667 27.7083V14.5833H32.0833V27.7083C32.0833 28.8687 31.6224 29.9815 30.8019 30.8019C29.9815 31.6224 28.8687 32.0833 27.7083 32.0833Z" fill="white"/>
<path d="M17.5 24.0625C18.7081 24.0625 19.6875 23.0831 19.6875 21.875C19.6875 20.6669 18.7081 19.6875 17.5 19.6875C16.2919 19.6875 15.3125 20.6669 15.3125 21.875C15.3125 23.0831 16.2919 24.0625 17.5 24.0625Z" fill="white"/>
<path d="M10.2083 24.0625C11.4164 24.0625 12.3958 23.0831 12.3958 21.875C12.3958 20.6669 11.4164 19.6875 10.2083 19.6875C9.00019 19.6875 8.02081 20.6669 8.02081 21.875C8.02081 23.0831 9.00019 24.0625 10.2083 24.0625Z" fill="white"/>
<path d="M24.7917 24.0625C25.9998 24.0625 26.9792 23.0831 26.9792 21.875C26.9792 20.6669 25.9998 19.6875 24.7917 19.6875C23.5836 19.6875 22.6042 20.6669 22.6042 21.875C22.6042 23.0831 23.5836 24.0625 24.7917 24.0625Z" fill="white"/>
</g>
<defs>
<clipPath id="clip0_110_1606">
<rect width="35" height="35" fill="white"/>
</clipPath>
</defs>
</svg>
