<svg width="35" height="35" viewBox="0 0 35 35" fill="none" xmlns="http://www.w3.org/2000/svg">
<g clip-path="url(#clip0_110_1596)">
<path d="M33.2923 13.3758L27.6354 7.71894C27.3604 7.4533 26.992 7.3063 26.6096 7.30963C26.2273 7.31295 25.8615 7.46632 25.5911 7.73671C25.3207 8.00709 25.1673 8.37286 25.164 8.75523C25.1607 9.1376 25.3077 9.50598 25.5733 9.78103L31.2302 15.4379C31.3983 15.6093 31.5452 15.8002 31.6677 16.0066C31.6458 16.0066 31.6283 15.995 31.6065 15.995L8.73397 16.0417C8.34719 16.0417 7.97626 16.1953 7.70277 16.4688C7.42928 16.7423 7.27563 17.1132 7.27563 17.5C7.27563 17.8868 7.42928 18.2577 7.70277 18.5312C7.97626 18.8047 8.34719 18.9583 8.73397 18.9583L31.5977 18.9117C31.6386 18.9117 31.6721 18.8912 31.7115 18.8883C31.5821 19.135 31.4181 19.3619 31.2244 19.5621L25.5675 25.2189C25.4282 25.3535 25.3171 25.5144 25.2407 25.6923C25.1643 25.8702 25.124 26.0616 25.1224 26.2552C25.1207 26.4489 25.1576 26.6409 25.2309 26.8201C25.3042 26.9993 25.4125 27.1622 25.5494 27.2991C25.6864 27.436 25.8492 27.5443 26.0284 27.6176C26.2076 27.691 26.3997 27.7279 26.5933 27.7262C26.7869 27.7245 26.9783 27.6843 27.1562 27.6078C27.3341 27.5314 27.4951 27.4203 27.6296 27.281L33.2865 21.6242C34.3801 20.5302 34.9944 19.0468 34.9944 17.5C34.9944 15.9532 34.3801 14.4697 33.2865 13.3758H33.2923Z" fill="white"/>
<path d="M10.2083 32.0833H7.29167C6.13134 32.0833 5.01855 31.6224 4.19807 30.8019C3.3776 29.9815 2.91667 28.8687 2.91667 27.7083V7.29167C2.91667 6.13134 3.3776 5.01855 4.19807 4.19807C5.01855 3.3776 6.13134 2.91667 7.29167 2.91667H10.2083C10.5951 2.91667 10.966 2.76302 11.2395 2.48953C11.513 2.21604 11.6667 1.84511 11.6667 1.45833C11.6667 1.07156 11.513 0.700627 11.2395 0.427136C10.966 0.153645 10.5951 0 10.2083 0L7.29167 0C5.35851 0.00231563 3.50519 0.771286 2.13824 2.13824C0.771286 3.50519 0.00231563 5.35851 0 7.29167L0 27.7083C0.00231563 29.6415 0.771286 31.4948 2.13824 32.8618C3.50519 34.2287 5.35851 34.9977 7.29167 35H10.2083C10.5951 35 10.966 34.8464 11.2395 34.5729C11.513 34.2994 11.6667 33.9284 11.6667 33.5417C11.6667 33.1549 11.513 32.784 11.2395 32.5105C10.966 32.237 10.5951 32.0833 10.2083 32.0833Z" fill="white"/>
</g>
<defs>
<clipPath id="clip0_110_1596">
<rect width="35" height="35" fill="white"/>
</clipPath>
</defs>
</svg>
