<svg width="35" height="35" viewBox="0 0 35 35" fill="none" xmlns="http://www.w3.org/2000/svg">
<path d="M24.7917 26.2391V34.9891H30.625C33.0412 34.9891 35 33.0303 35 30.6141V17.3126C35.0003 16.555 34.7059 15.827 34.1789 15.2826L21.7861 1.88488C19.5994 -0.481036 15.9088 -0.6263 13.5429 1.56038C13.4305 1.66429 13.3222 1.7725 13.2184 1.88488L0.847315 15.2783C0.304404 15.8249 -0.000204975 16.5641 1.03484e-07 17.3345V30.6141C1.03484e-07 33.0303 1.95877 34.9891 4.375 34.9891H10.2083V26.2391C10.2356 22.2625 13.4462 19.0151 17.3227 18.9216C21.3288 18.825 24.7611 22.1276 24.7917 26.2391Z" fill="white"/>
<path d="M17.5 21.864C15.0838 21.864 13.125 23.8228 13.125 26.239V34.989H21.875V26.239C21.875 23.8228 19.9162 21.864 17.5 21.864Z" fill="white"/>
</svg>
