<svg width="24" height="25" viewBox="0 0 24 25" fill="none" xmlns="http://www.w3.org/2000/svg">
<path d="M23.707 22.793L17.738 16.824C19.3646 14.8346 20.1644 12.2961 19.9719 9.73359C19.7793 7.17106 18.6092 4.78056 16.7036 3.05655C14.798 1.33254 12.3026 0.406918 9.73367 0.47115C7.16472 0.535382 4.71873 1.58455 2.90164 3.40164C1.08455 5.21873 0.035382 7.66472 -0.0288498 10.2337C-0.0930816 12.8026 0.832537 15.298 2.55655 17.2036C4.28056 19.1092 6.67106 20.2793 9.23359 20.4719C11.7961 20.6644 14.3346 19.8646 16.324 18.238L22.293 24.207C22.4816 24.3892 22.7342 24.49 22.9964 24.4877C23.2586 24.4854 23.5094 24.3803 23.6948 24.1948C23.8803 24.0094 23.9854 23.7586 23.9877 23.4964C23.99 23.2342 23.8892 22.9816 23.707 22.793ZM10 18.5C8.41778 18.5 6.87106 18.0308 5.55546 17.1518C4.23987 16.2727 3.21449 15.0233 2.60899 13.5615C2.00349 12.0997 1.84506 10.4912 2.15374 8.9393C2.46243 7.38746 3.22435 5.96199 4.34317 4.84317C5.46199 3.72435 6.88746 2.96243 8.4393 2.65374C9.99115 2.34506 11.5997 2.50349 13.0615 3.10899C14.5233 3.71449 15.7727 4.73987 16.6518 6.05546C17.5308 7.37106 18 8.91778 18 10.5C17.9976 12.621 17.154 14.6545 15.6542 16.1542C14.1545 17.654 12.121 18.4976 10 18.5Z" fill="#9B9B9B"/>
</svg>
