<svg width="35" height="35" viewBox="0 0 35 35" fill="none" xmlns="http://www.w3.org/2000/svg">
<g clip-path="url(#clip0_110_1599)">
<path d="M17.5 11.6666C16.3463 11.6666 15.2185 12.0087 14.2592 12.6497C13.2999 13.2907 12.5522 14.2017 12.1107 15.2676C11.6692 16.3335 11.5537 17.5064 11.7788 18.638C12.0039 19.7695 12.5594 20.8089 13.3752 21.6247C14.191 22.4406 15.2304 22.9961 16.362 23.2212C17.4936 23.4463 18.6664 23.3308 19.7323 22.8893C20.7982 22.4477 21.7093 21.7001 22.3503 20.7408C22.9912 19.7815 23.3334 18.6537 23.3334 17.5C23.3334 15.9529 22.7188 14.4691 21.6248 13.3752C20.5309 12.2812 19.0471 11.6666 17.5 11.6666ZM17.5 20.4166C16.9232 20.4166 16.3593 20.2456 15.8796 19.9251C15.4 19.6046 15.0261 19.1491 14.8054 18.6161C14.5846 18.0832 14.5269 17.4967 14.6394 16.9309C14.7519 16.3652 15.0297 15.8455 15.4376 15.4376C15.8455 15.0297 16.3652 14.7519 16.931 14.6393C17.4968 14.5268 18.0832 14.5846 18.6162 14.8053C19.1491 15.0261 19.6047 15.3999 19.9251 15.8795C20.2456 16.3592 20.4167 16.9231 20.4167 17.5C20.4167 18.2735 20.1094 19.0154 19.5624 19.5624C19.0154 20.1093 18.2736 20.4166 17.5 20.4166Z" fill="white"/>
<path d="M31.0537 20.2708L30.4062 19.8975C30.6977 18.3115 30.6977 16.6856 30.4062 15.0996L31.0537 14.7262C31.5517 14.439 31.9881 14.0565 32.3382 13.6005C32.6883 13.1446 32.9452 12.6241 33.0941 12.0689C33.2431 11.5137 33.2812 10.9346 33.2064 10.3646C33.1315 9.79465 32.9452 9.24501 32.6579 8.74708C32.3706 8.24916 31.9881 7.81268 31.5321 7.46259C31.0762 7.11249 30.5558 6.85563 30.0005 6.70667C29.4453 6.55771 28.8662 6.51957 28.2962 6.59442C27.7263 6.66927 27.1767 6.85565 26.6787 7.14292L26.0298 7.51771C24.8041 6.47051 23.3955 5.6587 21.875 5.12313V4.375C21.875 3.21468 21.414 2.10188 20.5936 1.28141C19.7731 0.460936 18.6603 0 17.5 0C16.3396 0 15.2268 0.460936 14.4064 1.28141C13.5859 2.10188 13.125 3.21468 13.125 4.375V5.12313C11.6045 5.66062 10.1964 6.47442 8.97164 7.52354L8.31976 7.14583C7.31415 6.56567 6.11926 6.40875 4.99795 6.70959C3.87663 7.01043 2.92076 7.74439 2.3406 8.75C1.76044 9.75561 1.60351 10.9505 1.90435 12.0718C2.20519 13.1931 2.93915 14.149 3.94476 14.7292L4.59226 15.1025C4.30076 16.6885 4.30076 18.3144 4.59226 19.9004L3.94476 20.2738C2.93915 20.8539 2.20519 21.8098 1.90435 22.9311C1.60351 24.0524 1.76044 25.2473 2.3406 26.2529C2.92076 27.2585 3.87663 27.9925 4.99795 28.2933C6.11926 28.5942 7.31415 28.4372 8.31976 27.8571L8.96872 27.4823C10.1948 28.5296 11.6039 29.3415 13.125 29.8769V30.625C13.125 31.7853 13.5859 32.8981 14.4064 33.7186C15.2268 34.5391 16.3396 35 17.5 35C18.6603 35 19.7731 34.5391 20.5936 33.7186C21.414 32.8981 21.875 31.7853 21.875 30.625V29.8769C23.3954 29.3394 24.8035 28.5256 26.0283 27.4765L26.6802 27.8527C27.6858 28.4329 28.8807 28.5898 30.002 28.289C31.1233 27.9881 32.0792 27.2542 32.6593 26.2485C33.2395 25.2429 33.3964 24.048 33.0956 22.9267C32.7947 21.8054 32.0608 20.8495 31.0552 20.2694L31.0537 20.2708ZM27.3379 14.7642C27.8317 16.5536 27.8317 18.4434 27.3379 20.2329C27.2517 20.5444 27.2713 20.8757 27.3938 21.1747C27.5163 21.4738 27.7346 21.7237 28.0146 21.8852L29.5954 22.7981C29.9305 22.9915 30.1751 23.3101 30.2754 23.6838C30.3756 24.0576 30.3233 24.4558 30.1299 24.7909C29.9365 25.1261 29.6179 25.3707 29.2442 25.4709C28.8704 25.5711 28.4722 25.5188 28.1371 25.3254L26.5533 24.4096C26.2731 24.2473 25.947 24.1829 25.6262 24.2265C25.3054 24.27 25.0082 24.4191 24.7814 24.6502C23.4834 25.9753 21.8481 26.9208 20.0521 27.3846C19.7386 27.4652 19.4608 27.6478 19.2625 27.9036C19.0642 28.1595 18.9567 28.474 18.9568 28.7977V30.625C18.9568 31.0118 18.8032 31.3827 18.5297 31.6562C18.2562 31.9297 17.8853 32.0833 17.4985 32.0833C17.1117 32.0833 16.7408 31.9297 16.4673 31.6562C16.1938 31.3827 16.0402 31.0118 16.0402 30.625V28.7992C16.0403 28.4755 15.9328 28.1609 15.7345 27.9051C15.5362 27.6492 15.2585 27.4666 14.945 27.386C13.1488 26.9204 11.514 25.9729 10.2171 24.6458C9.99032 24.4147 9.69313 24.2657 9.37232 24.2221C9.05152 24.1785 8.72533 24.2429 8.44518 24.4052L6.86435 25.3196C6.69843 25.4169 6.51491 25.4803 6.32436 25.5064C6.13381 25.5324 5.93999 25.5206 5.75405 25.4714C5.56811 25.4222 5.39374 25.3368 5.24096 25.22C5.08818 25.1031 4.96002 24.9572 4.86386 24.7907C4.76769 24.6241 4.70542 24.4402 4.68063 24.2495C4.65584 24.0588 4.66902 23.865 4.71941 23.6794C4.76981 23.4938 4.85641 23.32 4.97425 23.168C5.09208 23.016 5.23882 22.8888 5.40601 22.7938L6.98685 21.8808C7.26677 21.7193 7.48512 21.4694 7.6076 21.1703C7.73008 20.8713 7.74974 20.54 7.66351 20.2285C7.16966 18.4391 7.16966 16.5493 7.66351 14.7598C7.74819 14.449 7.72759 14.1189 7.60491 13.8211C7.48223 13.5232 7.26439 13.2743 6.98539 13.1133L5.40455 12.2004C5.06941 12.007 4.82482 11.6884 4.72459 11.3147C4.62436 10.941 4.67669 10.5427 4.87007 10.2076C5.06346 9.87246 5.38206 9.62787 5.75579 9.52764C6.12951 9.42741 6.52775 9.47974 6.86289 9.67313L8.44664 10.589C8.72602 10.7516 9.05153 10.8168 9.37199 10.7743C9.69245 10.7318 9.98971 10.584 10.2171 10.3542C11.5151 9.02904 13.1504 8.08357 14.9464 7.61979C15.2609 7.53895 15.5394 7.35547 15.7378 7.09844C15.9362 6.84141 16.0431 6.52552 16.0416 6.20083V4.375C16.0416 3.98823 16.1953 3.61729 16.4688 3.3438C16.7423 3.07031 17.1132 2.91667 17.5 2.91667C17.8867 2.91667 18.2577 3.07031 18.5312 3.3438C18.8047 3.61729 18.9583 3.98823 18.9583 4.375V6.20083C18.9581 6.52452 19.0657 6.83906 19.264 7.09491C19.4622 7.35075 19.74 7.53336 20.0535 7.61396C21.8502 8.07939 23.4855 9.02691 24.7829 10.3542C25.0096 10.5853 25.3068 10.7343 25.6276 10.7779C25.9484 10.8215 26.2746 10.7571 26.5548 10.5948L28.1356 9.68042C28.3015 9.58315 28.485 9.51966 28.6756 9.49361C28.8661 9.46755 29.06 9.47945 29.2459 9.52861C29.4318 9.57776 29.6062 9.66322 29.759 9.78004C29.9118 9.89687 30.0399 10.0428 30.1361 10.2093C30.2323 10.3759 30.2945 10.5598 30.3193 10.7505C30.3441 10.9412 30.3309 11.135 30.2805 11.3206C30.2301 11.5062 30.1435 11.68 30.0257 11.832C29.9079 11.984 29.7611 12.1112 29.5939 12.2063L28.0131 13.1192C27.7346 13.2806 27.5174 13.5297 27.3953 13.8275C27.2731 14.1253 27.253 14.4551 27.3379 14.7656V14.7642Z" fill="white"/>
</g>
<defs>
<clipPath id="clip0_110_1599">
<rect width="35" height="35" fill="white"/>
</clipPath>
</defs>
</svg>
